<?xml version="1.0" encoding="UTF-8"?>
<svg version="1.1" xmlns="http://www.w3.org/2000/svg" width="500" height="500">
<path d="M0 0 C12.21786266 4.27920311 22.85446249 3.92081043 34.6875 -1.5 C35.55761719 -1.9228125 36.42773438 -2.345625 37.32421875 -2.78125 C47.50389997 -7.41783473 60.50918842 -7.97443087 71.1875 -4.375 C76.0066517 -2.25218974 80.06554955 0.51855664 84 4 C84.59425781 4.52464844 85.18851562 5.04929687 85.80078125 5.58984375 C89.17157204 8.76630957 91.80786162 12.0838417 94.375 15.9375 C100.86127666 25.42855516 108.47338453 31.03931398 119.72436523 33.62646484 C123.4318431 34.29899481 127.15089312 34.86335386 130.87695312 35.421875 C143.6861019 37.50729431 153.76635242 43.00374308 161.46484375 53.61328125 C166.36793049 61.23614639 167.43172902 68.54367927 168.2956543 77.38647461 C169.76214228 92.14870827 175.50205828 100.46488695 186.8125 109.9375 C187.92133004 110.84471015 189.03191339 111.74978306 190.14453125 112.65234375 C194.48980978 116.22486413 194.48980978 116.22486413 196 118 C196 118.66 196 119.32 196 120 C196.66 120 197.32 120 198 120 C198 120.99 198 121.98 198 123 C198.66 123 199.32 123 200 123 C205.73842205 134.78326469 207.94839456 146.23579346 204 159 C202.35361665 163.00465949 200.46803493 166.89293387 198.55859375 170.77734375 C194.83900264 178.46822762 194.58367962 188.61855677 197.1875 196.8125 C198.43745253 199.98499856 199.99597712 202.97355195 201.5625 206 C206.36332738 215.35582926 207.37040884 225.33086465 204.81640625 235.546875 C202.06145155 243.8249207 197.80774001 252.32688332 191 258 C188.7890625 258.70703125 188.7890625 258.70703125 187 259 C187 259.66 187 260.32 187 261 C181.52380952 266 181.52380952 266 179 266 C178.731875 266.57105469 178.46375 267.14210938 178.1875 267.73046875 C176.55248781 270.85527823 174.49203184 273.62734567 172.4375 276.48828125 C169.23425422 282.08525689 168.68518729 288.03045036 168.125 294.3125 C166.756047 307.15768085 162.20409926 316.44460996 152.625 325.3125 C145.439361 331.10271357 136.76730676 333.37762877 127.7421875 334.3515625 C115.46689185 335.72747476 104.54471432 340.04533812 96.52563477 349.79199219 C95.14542305 351.67098963 93.81203644 353.57282481 92.5 355.5 C84.35835416 367.4587973 75.1594932 372.85516727 61 376 C50.79700997 377.17291991 42.30753556 374.22114761 33.0546875 370.2421875 C19.98841857 364.92879425 10.01158143 364.92879425 -3.0546875 370.2421875 C-4.06789062 370.67789062 -5.08109375 371.11359375 -6.125 371.5625 C-18.12411683 376.69614277 -30.12313232 377.86010493 -42.46875 373.03515625 C-52.11235395 368.6151711 -58.54929601 362.10701417 -64.3984375 353.38671875 C-71.08531358 343.42164244 -79.07363879 338.19072271 -90.85546875 335.57421875 C-94.10389004 334.98102878 -97.35383832 334.51223668 -100.625 334.0625 C-115.3909008 331.8926006 -124.51295913 324.64938783 -133.25 313 C-136.49729423 307.43320989 -137.24587028 301.72829366 -137.98754883 295.42431641 C-139.42756486 283.29615735 -141.91791827 273.70921034 -151 265 C-151.66 264.67 -152.32 264.34 -153 264 C-153 263.34 -153 262.68 -153 262 C-153.7734375 261.6596875 -153.7734375 261.6596875 -154.5625 261.3125 C-163.89479317 256.28741906 -170.21718623 248.92988614 -174 239 C-178.03450005 224.65001687 -175.52674715 213.13593598 -168.55859375 200.19921875 C-164.87285786 192.63376087 -164.77149501 182.60028828 -166.56640625 174.41796875 C-167.57394364 171.65910982 -168.86719307 169.20380213 -170.46875 166.74609375 C-175.97776517 156.86640583 -177.32479374 145.1924392 -174.7109375 134.3203125 C-173.50499585 130.38443702 -171.79972223 126.69554614 -170 123 C-169.34 123 -168.68 123 -168 123 C-168 122.01 -168 121.02 -168 120 C-167.34 120 -166.68 120 -166 120 C-165.773125 119.443125 -165.54625 118.88625 -165.3125 118.3125 C-163.62449964 115.33840412 -161.53323483 113.27991135 -159 111 C-158.34 111 -157.68 111 -157 111 C-157 110.34 -157 109.68 -157 109 C-156.154375 108.46375 -155.30875 107.9275 -154.4375 107.375 C-147.35043184 102.83458518 -142.42919309 96.01142974 -140 88 C-138.7921014 82.14241942 -138.09940331 76.26889709 -137.625 70.3125 C-136.42669013 59.54735562 -130.60574823 51.17073426 -122.78515625 43.95703125 C-114.17482413 37.23782033 -103.78653467 35.46236681 -93.1875 34 C-80.56140473 32.15002267 -71.84120077 26.69555022 -64.03125 16.40625 C-62.89802853 14.73732383 -61.77281554 13.06292763 -60.65625 11.3828125 C-54.71935075 2.84151877 -46.97364225 -2.26906967 -37.15234375 -5.6328125 C-23.61948243 -7.9415039 -12.42586596 -5.10253645 0 0 Z M-38.4375 117.375 C-39.01677246 117.73795166 -39.59604492 118.10090332 -40.19287109 118.47485352 C-44.29628396 121.19155878 -47.1100929 124.07836906 -50 128 C-50 128.66 -50 129.32 -50 130 C-50.66 130 -51.32 130 -52 130 C-54.74102882 138.28503061 -56.40298552 145.09790954 -52.4375 153.1875 C-47.99149993 158.31750008 -43.84928899 162.09463914 -36.9375 163.0625 C-30.99724217 163.31799496 -27.14516293 161.81513786 -22.5625 157.9375 C-20.79074918 156.15536873 -20.79074918 156.15536873 -21 154 C-21.67546875 153.85304687 -22.3509375 153.70609375 -23.046875 153.5546875 C-27.30963626 152.48283713 -30.32796912 151.60802794 -33.625 148.625 C-35.6907576 143.17891177 -35.79933236 137.75375276 -35 132 C-33.47265625 129.22265625 -33.47265625 129.22265625 -32 127 C-32 126.34 -32 125.68 -32 125 C-31.34 125 -30.68 125 -30 125 C-30 124.34 -30 123.68 -30 123 C-29.43410156 122.72027344 -28.86820313 122.44054687 -28.28515625 122.15234375 C-26.78230041 121.39449337 -25.28951911 120.61626433 -23.80859375 119.81640625 C-8.19824393 111.56118007 8.86080601 110.09461105 26 114 C32.96152214 116.24155938 38.86265755 119.16133976 44.4765625 123.86328125 C45.95036123 125.19934177 45.95036123 125.19934177 48 125 C48 125.66 48 126.32 48 127 C48.66 127 49.32 127 50 127 C50.226875 127.515625 50.45375 128.03125 50.6875 128.5625 C51.99636401 131.16824712 51.99636401 131.16824712 54.25 133.8125 C62.10694547 144.60705713 65.14081021 158.59639194 65.6875 171.6875 C65.74393677 172.99569702 65.74393677 172.99569702 65.80151367 174.33032227 C66.46742795 192.56496751 63.71977213 209.4615046 51.9765625 223.953125 C46.32653278 229.80414392 38.98588816 232.32113779 31 233 C23.35847743 232.98773431 16.44913357 230.86228339 9 229 C9 193.69 9 158.38 9 122 C2.92192552 121.9553158 2.92192552 121.9553158 -2.6875 123 C-5.71403958 123.77410604 -7.77805142 124 -11 124 C-11 161.29 -11 198.58 -11 237 C15.22298758 241.62758604 41.6123526 245.40503721 65 230 C68.40069222 227.2699338 71.22660738 224.35663828 74 221 C74.83917969 220.06414062 74.83917969 220.06414062 75.6953125 219.109375 C85.44248598 207.45195144 87.34977149 192.34551486 87.3125 177.75 C87.32861328 176.50347656 87.34472656 175.25695312 87.36132812 173.97265625 C87.37018707 157.01663113 81.95378042 143.0146721 71 130 C70.34 130 69.68 130 69 130 C69 129.34 69 128.68 69 128 C68.34 128 67.68 128 67 128 C67 127.34 67 126.68 67 126 C65.13664937 124.47516315 63.2955551 123.10431576 61.3125 121.75 C60.44032837 121.15046509 60.44032837 121.15046509 59.55053711 120.53881836 C43.51319271 109.8134805 27.05065625 106.63454148 8 106.75 C6.72382813 106.74226563 5.44765625 106.73453125 4.1328125 106.7265625 C-11.2083196 106.75793496 -25.33121114 109.10215057 -38.4375 117.375 Z " fill="#010101" transform="translate(235,59)"/>
<path d="M0 0 C0 3 0 3 -1.53125 4.82421875 C-2.1809375 5.43910156 -2.830625 6.05398437 -3.5 6.6875 C-4.1496875 7.31011719 -4.799375 7.93273437 -5.46875 8.57421875 C-5.9740625 9.04472656 -6.479375 9.51523438 -7 10 C-7.66 9.67 -8.32 9.34 -9 9 C-8.06725891 7.87105124 -7.12859878 6.74699124 -6.1875 5.625 C-5.66542969 4.99851562 -5.14335938 4.37203125 -4.60546875 3.7265625 C-3 2 -3 2 0 0 Z " fill="#292929" transform="translate(113,103)"/>
</svg>
